<svg xmlns="http://www.w3.org/2000/svg" width="30.34" height="30" viewBox="0 0 30.34 30">
  <metadata><?xpacket begin="﻿" id="W5M0MpCehiHzreSzNTczkc9d"?>
<x:xmpmeta xmlns:x="adobe:ns:meta/" x:xmptk="Adobe XMP Core 5.6-c138 79.159824, 2016/09/14-01:09:01        ">
   <rdf:RDF xmlns:rdf="http://www.w3.org/1999/02/22-rdf-syntax-ns#">
      <rdf:Description rdf:about=""/>
   </rdf:RDF>
</x:xmpmeta>
                                                                                                    
                                                                                                    
                                                                                                    
                                                                                                    
                                                                                                    
                                                                                                    
                                                                                                    
                                                                                                    
                                                                                                    
                                                                                                    
                                                                                                    
                                                                                                    
                                                                                                    
                                                                                                    
                                                                                                    
                                                                                                    
                                                                                                    
                                                                                                    
                                                                                                    
                                                                                                    
                           
<?xpacket end="w"?></metadata>
<defs>
    <style>
      .cls-1 {
        fill: #5d99c3;
        fill-rule: evenodd;
      }
    </style>
  </defs>
  <path id="vk" class="cls-1" d="M1016.1,660a15,15,0,1,1-15.17,15A15.085,15.085,0,0,1,1016.1,660Zm2.8,14.671v-0.063a2.375,2.375,0,0,0,1.47-2.42,2.747,2.747,0,0,0-2.37-2.716c-0.3-.044-3.51-0.1-4.77-0.1a0.864,0.864,0,0,0-.93.984V679.7a1.023,1.023,0,0,0,.93.926h3.35c-0.9,0,4.44.265,4.26-3.281A2.774,2.774,0,0,0,1018.9,674.67Zm-2.66-.685c-0.48.025-1.09,0.077-1.09,0.077v-2.813s0.28-.02.95,0a1.213,1.213,0,0,1,1.4,1.438A1.252,1.252,0,0,1,1016.24,673.985Zm0.33,4.764h-1.42v-2.812s0.86-.014,1.42,0a1.378,1.378,0,0,1,1.42,1.406A1.343,1.343,0,0,1,1016.57,678.749Z" transform="translate(-1000.94 -660)"/>
</svg>
